<svg width="54" height="54" viewBox="0 0 54 54" fill="none" xmlns="http://www.w3.org/2000/svg">
<circle cx="27" cy="27" r="27" fill="#FEAF16"/>
<path fill-rule="evenodd" clip-rule="evenodd" d="M15 27C15 20.373 20.385 15 27 15C33.627 15 39 20.385 39 27C39 33.627 33.615 39 27 39C20.373 39 15 33.615 15 27ZM18 27C18 31.9605 22.029 36 27 36C31.9605 36 36 31.971 36 27C36 22.0395 31.971 18 27 18C22.0395 18 18 22.029 18 27ZM21 27C21 23.685 23.6925 21 27 21C30.315 21 33 23.6925 33 27C33 30.315 30.3075 33 27 33C23.685 33 21 30.3075 21 27ZM24 27C24 28.668 25.3425 30 27 30C28.668 30 30 28.6575 30 27C30 25.332 28.6575 24 27 24C25.332 24 24 25.3425 24 27Z" fill="#0B487F"/>
</svg>
