<svg width="54" height="54" viewBox="0 0 54 54" fill="none" xmlns="http://www.w3.org/2000/svg">
<circle cx="27" cy="27" r="27" fill="#FEAF16"/>
<path fill-rule="evenodd" clip-rule="evenodd" d="M32.8668 34.5816C32.6604 34.062 32.3676 33.6084 32.1108 33.2208C31.9812 33.0264 31.848 32.8284 31.7316 32.6244C31.2648 31.8132 31.4256 31.4844 32.1828 30.216L32.3052 30.0084C32.9184 28.9752 32.952 27.984 32.9832 27.1104C32.9976 26.6808 33.012 26.2764 33.0948 25.896C33.288 25.0176 35.1444 24.7836 36.2952 24.6456C36.4884 25.4004 36.6 26.1864 36.6 27C36.6 30.0828 35.1336 32.8236 32.8668 34.5816ZM27 17.4C27.7392 17.4 28.4532 17.4912 29.1444 17.6496C28.9416 18.096 28.6284 18.5028 28.2156 18.8256C27.954 19.032 27.66 19.2036 27.3684 19.3776C26.5872 19.8432 25.7028 20.3712 25.1484 21.3864C24.4092 22.7424 24.4092 24.1272 24.4092 25.3488C24.4092 26.9748 24.3564 27.936 23.2716 28.7844C21.6288 30.072 19.1148 29.3532 17.5596 28.6992C17.4612 28.146 17.4 27.5796 17.4 27C17.4 21.7068 21.7068 17.4 27 17.4ZM27 15C20.3832 15 15 20.3832 15 27C15 33.6156 20.3832 39 27 39C33.6168 39 39 33.6156 39 27C39 20.3832 33.6168 15 27 15Z" fill="#0B487F"/>
</svg>
