<svg width="54" height="54" viewBox="0 0 54 54" fill="none" xmlns="http://www.w3.org/2000/svg">
<circle cx="27" cy="27" r="27" fill="#FEAF16"/>
<path fill-rule="evenodd" clip-rule="evenodd" d="M36.846 26.8273C36.8673 26.8953 36.8886 26.9634 36.9028 27.0342C36.9648 27.3472 36.9998 27.6692 36.9998 28.0002C36.9998 28.3082 36.9638 28.6112 36.9078 28.9102C36.8954 28.9783 36.8787 29.0437 36.8621 29.1091C36.8545 29.1387 36.847 29.1683 36.8398 29.1982C36.7898 29.3972 36.7308 29.5922 36.6578 29.7832C36.6198 29.8822 36.5808 29.9792 36.5368 30.0752C36.4498 30.2652 36.3488 30.4472 36.2378 30.6262C36.2205 30.6539 36.2041 30.6821 36.1877 30.7103C36.1604 30.7572 36.133 30.8042 36.1018 30.8492C36.0927 30.8622 36.0849 30.8756 36.0772 30.8889C36.0689 30.9034 36.0607 30.9177 36.0508 30.9312C36.0431 30.9422 36.0323 30.9493 36.0217 30.9563C36.0131 30.9619 36.0045 30.9676 35.9978 30.9752C35.0858 32.1972 33.6418 33.0002 31.9998 33.0002H28.9998V31.7332C29.3008 31.9072 29.6428 32.0002 29.9998 32.0002C30.5338 32.0002 31.0358 31.7922 31.4138 31.4142C32.1938 30.6352 32.1938 29.3652 31.4138 28.5862L28.4138 25.5862C28.0378 25.2092 27.5358 25.0012 27.0018 25.0012C26.4828 25.0012 25.9898 25.1982 25.6138 25.5572L22.6108 28.4572C21.8178 29.2232 21.7958 30.4922 22.5618 31.2852C22.9378 31.6742 23.4618 31.8972 24.0018 31.8972C24.3568 31.8972 24.6988 31.8042 24.9998 31.6302V33.0002H21.9998C20.3578 33.0002 18.9138 32.1972 18.0028 30.9752C17.9958 30.9677 17.9872 30.9622 17.9787 30.9567C17.9677 30.9496 17.9567 30.9424 17.9488 30.9312C17.9382 30.9167 17.9295 30.9013 17.9207 30.8858C17.9138 30.8735 17.9068 30.8612 17.8988 30.8492C17.8669 30.8032 17.8386 30.7552 17.8104 30.7073C17.7944 30.6801 17.7784 30.6529 17.7618 30.6262C17.6518 30.4472 17.5498 30.2652 17.4628 30.0752C17.4202 29.9823 17.3832 29.8884 17.3455 29.7927L17.3418 29.7832C17.2698 29.5922 17.2098 29.3972 17.1608 29.1982C17.1545 29.1729 17.1479 29.1478 17.1414 29.1227C17.1232 29.0527 17.105 28.9831 17.0918 28.9102C17.0368 28.6112 16.9998 28.3082 16.9998 28.0002C16.9998 27.6692 17.0358 27.3472 17.0968 27.0342C17.1114 26.9613 17.1336 26.8913 17.1558 26.8212C17.1686 26.7807 17.1814 26.7402 17.1928 26.6992C17.197 26.6838 17.2011 26.6685 17.2053 26.6531C17.253 26.4774 17.3007 26.3016 17.3678 26.1352C17.404 26.0446 17.4485 25.9599 17.4931 25.8749C17.5125 25.8379 17.532 25.8008 17.5508 25.7632C17.5572 25.7505 17.5636 25.7378 17.5699 25.7251C17.6402 25.5851 17.7094 25.4473 17.7938 25.3162C17.8576 25.2153 17.9298 25.1222 18.0021 25.029C18.0194 25.0068 18.0366 24.9845 18.0538 24.9622L18.0573 24.9576C18.1541 24.8332 18.2501 24.7098 18.3578 24.5942C18.4543 24.4901 18.5579 24.3968 18.6628 24.3024C18.6688 24.297 18.6748 24.2916 18.6808 24.2862C18.7988 24.1802 18.9188 24.0782 19.0468 23.9842C19.1658 23.8962 19.2878 23.8162 19.4148 23.7402C19.5548 23.6542 19.6978 23.5772 19.8458 23.5062C19.9758 23.4432 20.1058 23.3862 20.2418 23.3352C20.4038 23.2732 20.5708 23.2242 20.7408 23.1802C20.8758 23.1442 21.0078 23.1092 21.1478 23.0862C21.1742 23.0813 21.1999 23.0744 21.2255 23.0674C21.2581 23.0585 21.2906 23.0497 21.3248 23.0452C22.1458 20.6612 24.4198 19.0002 26.9998 19.0002C29.5808 19.0002 31.8548 20.6612 32.6748 23.0452C32.709 23.0497 32.7419 23.0586 32.7749 23.0674C32.8007 23.0744 32.8264 23.0814 32.8528 23.0862C32.9918 23.1092 33.1248 23.1442 33.2588 23.1802C33.4288 23.2242 33.5958 23.2732 33.7578 23.3352C33.8938 23.3862 34.0248 23.4432 34.1538 23.5062C34.3018 23.5772 34.4448 23.6542 34.5848 23.7402C34.7118 23.8162 34.8348 23.8962 34.9538 23.9842C35.0808 24.0782 35.2008 24.1802 35.3188 24.2862C35.4308 24.3862 35.5398 24.4842 35.6428 24.5942C35.7518 24.7112 35.8488 24.8362 35.9458 24.9622C35.9585 24.9785 35.9712 24.9948 35.9839 25.0111C36.0612 25.1103 36.1381 25.2088 36.2068 25.3162C36.2899 25.4468 36.3588 25.584 36.4288 25.7234C36.4354 25.7367 36.4421 25.7499 36.4488 25.7632C36.4676 25.8008 36.4871 25.8379 36.5065 25.8749C36.5511 25.9599 36.5956 26.0446 36.6318 26.1352C36.7 26.3021 36.7479 26.4784 36.7957 26.6547C36.7997 26.6695 36.8038 26.6844 36.8078 26.6992C36.8193 26.7423 36.8326 26.7848 36.846 26.8273ZM26.305 26.28C26.699 25.904 27.322 25.907 27.707 26.293L30.707 29.293C31.098 29.684 31.098 30.316 30.707 30.707C30.512 30.902 30.256 31 30 31C29.744 31 29.488 30.902 29.293 30.707L28 29.414V35C28 35.553 27.552 36 27 36C26.448 36 26 35.553 26 35V29.356L24.695 30.616C24.298 31.001 23.665 30.988 23.281 30.591C22.897 30.193 22.908 29.561 23.305 29.177L26.305 26.28Z" fill="#231F20"/>
<mask id="mask0_8_1631" style="mask-type:luminance" maskUnits="userSpaceOnUse" x="16" y="19" width="21" height="17">
<path fill-rule="evenodd" clip-rule="evenodd" d="M36.846 26.8273C36.8673 26.8953 36.8886 26.9634 36.9028 27.0342C36.9648 27.3472 36.9998 27.6692 36.9998 28.0002C36.9998 28.3082 36.9638 28.6112 36.9078 28.9102C36.8954 28.9783 36.8787 29.0437 36.8621 29.1091C36.8545 29.1387 36.847 29.1683 36.8398 29.1982C36.7898 29.3972 36.7308 29.5922 36.6578 29.7832C36.6198 29.8822 36.5808 29.9792 36.5368 30.0752C36.4498 30.2652 36.3488 30.4472 36.2378 30.6262C36.2205 30.6539 36.2041 30.6821 36.1877 30.7103C36.1604 30.7572 36.133 30.8042 36.1018 30.8492C36.0927 30.8622 36.0849 30.8756 36.0772 30.8889C36.0689 30.9034 36.0607 30.9177 36.0508 30.9312C36.0431 30.9422 36.0323 30.9493 36.0217 30.9563C36.0131 30.9619 36.0045 30.9676 35.9978 30.9752C35.0858 32.1972 33.6418 33.0002 31.9998 33.0002H28.9998V31.7332C29.3008 31.9072 29.6428 32.0002 29.9998 32.0002C30.5338 32.0002 31.0358 31.7922 31.4138 31.4142C32.1938 30.6352 32.1938 29.3652 31.4138 28.5862L28.4138 25.5862C28.0378 25.2092 27.5358 25.0012 27.0018 25.0012C26.4828 25.0012 25.9898 25.1982 25.6138 25.5572L22.6108 28.4572C21.8178 29.2232 21.7958 30.4922 22.5618 31.2852C22.9378 31.6742 23.4618 31.8972 24.0018 31.8972C24.3568 31.8972 24.6988 31.8042 24.9998 31.6302V33.0002H21.9998C20.3578 33.0002 18.9138 32.1972 18.0028 30.9752C17.9958 30.9677 17.9872 30.9622 17.9787 30.9567C17.9677 30.9496 17.9567 30.9424 17.9488 30.9312C17.9382 30.9167 17.9295 30.9013 17.9207 30.8858C17.9138 30.8735 17.9068 30.8612 17.8988 30.8492C17.8669 30.8032 17.8386 30.7552 17.8104 30.7073C17.7944 30.6801 17.7784 30.6529 17.7618 30.6262C17.6518 30.4472 17.5498 30.2652 17.4628 30.0752C17.4202 29.9823 17.3832 29.8884 17.3455 29.7927L17.3418 29.7832C17.2698 29.5922 17.2098 29.3972 17.1608 29.1982C17.1545 29.1729 17.1479 29.1478 17.1414 29.1227C17.1232 29.0527 17.105 28.9831 17.0918 28.9102C17.0368 28.6112 16.9998 28.3082 16.9998 28.0002C16.9998 27.6692 17.0358 27.3472 17.0968 27.0342C17.1114 26.9613 17.1336 26.8913 17.1558 26.8212C17.1686 26.7807 17.1814 26.7402 17.1928 26.6992C17.197 26.6838 17.2011 26.6685 17.2053 26.6531C17.253 26.4774 17.3007 26.3016 17.3678 26.1352C17.404 26.0446 17.4485 25.9599 17.4931 25.8749C17.5125 25.8379 17.532 25.8008 17.5508 25.7632C17.5572 25.7505 17.5636 25.7378 17.5699 25.7251C17.6402 25.5851 17.7094 25.4473 17.7938 25.3162C17.8576 25.2153 17.9298 25.1222 18.0021 25.029C18.0194 25.0068 18.0366 24.9845 18.0538 24.9622L18.0573 24.9576C18.1541 24.8332 18.2501 24.7098 18.3578 24.5942C18.4543 24.4901 18.5579 24.3968 18.6628 24.3024C18.6688 24.297 18.6748 24.2916 18.6808 24.2862C18.7988 24.1802 18.9188 24.0782 19.0468 23.9842C19.1658 23.8962 19.2878 23.8162 19.4148 23.7402C19.5548 23.6542 19.6978 23.5772 19.8458 23.5062C19.9758 23.4432 20.1058 23.3862 20.2418 23.3352C20.4038 23.2732 20.5708 23.2242 20.7408 23.1802C20.8758 23.1442 21.0078 23.1092 21.1478 23.0862C21.1742 23.0813 21.1999 23.0744 21.2255 23.0674C21.2581 23.0585 21.2906 23.0497 21.3248 23.0452C22.1458 20.6612 24.4198 19.0002 26.9998 19.0002C29.5808 19.0002 31.8548 20.6612 32.6748 23.0452C32.709 23.0497 32.7419 23.0586 32.7749 23.0674C32.8007 23.0744 32.8264 23.0814 32.8528 23.0862C32.9918 23.1092 33.1248 23.1442 33.2588 23.1802C33.4288 23.2242 33.5958 23.2732 33.7578 23.3352C33.8938 23.3862 34.0248 23.4432 34.1538 23.5062C34.3018 23.5772 34.4448 23.6542 34.5848 23.7402C34.7118 23.8162 34.8348 23.8962 34.9538 23.9842C35.0808 24.0782 35.2008 24.1802 35.3188 24.2862C35.4308 24.3862 35.5398 24.4842 35.6428 24.5942C35.7518 24.7112 35.8488 24.8362 35.9458 24.9622C35.9585 24.9785 35.9712 24.9948 35.9839 25.0111C36.0612 25.1103 36.1381 25.2088 36.2068 25.3162C36.2899 25.4468 36.3588 25.584 36.4288 25.7234C36.4354 25.7367 36.4421 25.7499 36.4488 25.7632C36.4676 25.8008 36.4871 25.8379 36.5065 25.8749C36.5511 25.9599 36.5956 26.0446 36.6318 26.1352C36.7 26.3021 36.7479 26.4784 36.7957 26.6547C36.7997 26.6695 36.8038 26.6844 36.8078 26.6992C36.8193 26.7423 36.8326 26.7848 36.846 26.8273ZM26.305 26.28C26.699 25.904 27.322 25.907 27.707 26.293L30.707 29.293C31.098 29.684 31.098 30.316 30.707 30.707C30.512 30.902 30.256 31 30 31C29.744 31 29.488 30.902 29.293 30.707L28 29.414V35C28 35.553 27.552 36 27 36C26.448 36 26 35.553 26 35V29.356L24.695 30.616C24.298 31.001 23.665 30.988 23.281 30.591C22.897 30.193 22.908 29.561 23.305 29.177L26.305 26.28Z" fill="white"/>
</mask>
<g mask="url(#mask0_8_1631)">
<rect x="15" y="15" width="24" height="24" fill="#0B487F"/>
</g>
</svg>
