<svg width="54" height="54" viewBox="0 0 54 54" fill="none" xmlns="http://www.w3.org/2000/svg">
<circle cx="27" cy="27" r="27" fill="#FEAF16"/>
<path fill-rule="evenodd" clip-rule="evenodd" d="M27 14C20.3832 14 15 19.58 15 26.4392V32C15 34.6472 17.1528 36.8 19.8 36.8C22.4472 36.8 24.6 34.6472 24.6 32C24.6 29.3528 22.4472 27.2 19.8 27.2C18.9216 27.2 18.1092 27.4544 17.4 27.8684V26.4392C17.4 20.9036 21.7068 16.4 27 16.4C32.2932 16.4 36.6 20.9036 36.6 26.4392V27.8684C35.8908 27.4544 35.0784 27.2 34.2 27.2C31.5528 27.2 29.4 29.3528 29.4 32C29.4 34.6472 31.5528 36.8 34.2 36.8C36.8472 36.8 39 34.6472 39 32V26.4392C39 19.58 33.6168 14 27 14Z" fill="#0B487F"/>
</svg>
