<svg width="54" height="54" viewBox="0 0 54 54" fill="none" xmlns="http://www.w3.org/2000/svg">
<circle cx="27" cy="27" r="27" fill="#FEAF16"/>
<path d="M27.6068 39.7058C27.4539 39.7058 27.3009 39.6707 27.1629 39.5992L22.7145 37.2965C21.4522 36.6424 20.4648 35.9084 19.6937 35.0532C18.0061 33.1829 17.0672 30.7821 17.0523 28.2916L17.0001 20.0947C16.9938 19.1486 17.6045 18.2995 18.5173 17.9797L26.6853 15.1319C27.1703 14.9587 27.7113 14.9563 28.205 15.1234L36.4042 17.8743C37.3219 18.1808 37.9425 19.0239 37.9475 19.9687L37.9997 28.1717C38.0159 30.6585 37.1093 33.069 35.4478 34.9599C34.6855 35.8272 33.7068 36.5722 32.4569 37.2384L28.0483 39.5932C27.9115 39.6671 27.7598 39.7046 27.6068 39.7058Z" fill="#0B487F"/>
</svg>
