<svg width="54" height="54" viewBox="0 0 54 54" fill="none" xmlns="http://www.w3.org/2000/svg">
<circle cx="27" cy="27" r="27" fill="#FEAF16"/>
<path fill-rule="evenodd" clip-rule="evenodd" d="M36.3333 35.3413C36.3333 35.888 35.888 36.3333 35.3413 36.3333H33.6667V33.6667H36.3333V35.3413ZM17.6667 35.3413V33.6667H20.3333V36.3333H18.6587C18.112 36.3333 17.6667 35.888 17.6667 35.3413ZM18.6587 17.6667H20.3333V20.3333H17.6667V18.6587C17.6667 18.112 18.112 17.6667 18.6587 17.6667ZM36.3333 18.6587V20.3333H33.6667V17.6667H35.3413C35.888 17.6667 36.3333 18.112 36.3333 18.6587ZM33.6667 31H36.3333V28.3333H33.6667V31ZM33.6667 25.6667H36.3333V23H33.6667V25.6667ZM17.6667 31H20.3333V28.3333H17.6667V31ZM17.6667 25.6667H20.3333V23H17.6667V25.6667ZM35.3413 15H18.6587C16.6413 15 15 16.6427 15 18.6587V35.3413C15 37.3587 16.6413 39 18.6587 39H35.3413C37.3587 39 39 37.3587 39 35.3413V18.6587C39 16.6427 37.3587 15 35.3413 15Z" fill="#0B487F"/>
</svg>
